<?xml version="1.0" standalone="no"?><!DOCTYPE svg PUBLIC "-//W3C//DTD SVG 1.1//EN" "http://www.w3.org/Graphics/SVG/1.1/DTD/svg11.dtd"><svg class="icon" width="200px" height="200.00px" viewBox="0 0 1024 1024" version="1.1" xmlns="http://www.w3.org/2000/svg"><path d="M512 512m-512 0a512 512 0 1 0 1024 0 512 512 0 1 0-1024 0Z" fill="#FEEED7" /><path d="M691.643733 701.0304V322.9696c0-9.284267-2.082133-17.527467-6.229333-25.770667a82.517333 82.517333 0 0 0-15.598933-21.623466c-7.2704-6.178133-14.5408-11.332267-23.893334-14.421334C636.535467 258.048 627.2 256 616.789333 256H416.170667c-10.3936 0-19.746133 2.048-29.098667 5.154133a82.210133 82.210133 0 0 0-23.893333 14.421334c-6.2464 6.178133-11.434667 13.397333-15.616 21.623466a55.4496 55.4496 0 0 0-6.229334 25.770667v379.101867c0 9.2672 2.082133 17.5104 6.229334 25.7536 4.164267 8.2432 9.3696 14.421333 15.598933 20.599466 6.2464 6.178133 14.557867 10.308267 23.9104 14.421334 9.352533 3.089067 18.705067 5.154133 29.098667 5.154133h202.717866c10.3936 0 19.746133-2.048 29.098667-5.154133 9.352533-3.072 16.64-8.2432 23.9104-14.421334 6.229333-6.178133 11.434667-13.397333 15.598933-20.599466 2.065067-9.2672 4.1472-17.5104 4.1472-26.794667zM475.426133 295.150933c2.082133-1.024 4.164267-2.065067 6.2464-2.065066h72.7552c2.082133 0 4.164267 1.024 6.2464 2.048 2.082133 2.065067 3.1232 4.130133 3.1232 7.2192a11.093333 11.093333 0 0 1-3.1232 7.2192c-2.082133 1.024-4.164267 2.048-6.2464 2.048h-72.7552c-2.082133 0-4.164267-1.024-6.2464-2.048a9.3184 9.3184 0 0 1-3.106133-7.2192c-1.041067-3.072 1.024-5.154133 3.106133-7.202134z m62.378667 442.965334c-5.205333 5.154133-13.5168 8.2432-20.7872 8.2432-8.328533 0-15.598933-3.072-20.804267-8.2432-5.188267-5.137067-9.352533-12.356267-9.352533-19.5584 0-8.2432 3.1232-14.421333 9.352533-20.616534 5.205333-5.137067 13.5168-8.2432 20.804267-8.2432 8.311467 0 15.581867 3.106133 20.7872 8.2432 5.188267 5.154133 8.311467 12.373333 8.311467 20.616534 0 7.202133-2.082133 13.380267-8.311467 19.5584z m100.7616-64.273067h-242.517333V348.296533h242.517333v325.546667z" fill="#FAAC36" /></svg>